<svg width="45" height="13" viewBox="0 0 45 13" fill="none" xmlns="http://www.w3.org/2000/svg">
<path d="M1.88636 0.363636L5.34091 10.1591H5.47727L8.93182 0.363636H10.4091L6.13636 12H4.68182L0.409091 0.363636H1.88636ZM13.6307 0.363636V12H12.2216V0.363636H13.6307ZM22.8196 3.27273C22.7514 2.69697 22.4749 2.25 21.9901 1.93182C21.5052 1.61364 20.9105 1.45455 20.206 1.45455C19.6908 1.45455 19.2401 1.53788 18.8537 1.70455C18.4711 1.87121 18.1719 2.10038 17.956 2.39205C17.7438 2.68371 17.6378 3.01515 17.6378 3.38636C17.6378 3.69697 17.7116 3.96401 17.8594 4.1875C18.0109 4.4072 18.2041 4.59091 18.4389 4.73864C18.6738 4.88258 18.92 5.00189 19.1776 5.09659C19.4351 5.1875 19.6719 5.26136 19.8878 5.31818L21.0696 5.63636C21.3726 5.71591 21.7098 5.82576 22.081 5.96591C22.456 6.10606 22.8139 6.29735 23.1548 6.53977C23.4995 6.77841 23.7836 7.08523 24.0071 7.46023C24.2306 7.83523 24.3423 8.29545 24.3423 8.84091C24.3423 9.4697 24.1776 10.0379 23.848 10.5455C23.5223 11.053 23.045 11.4564 22.4162 11.7557C21.7912 12.0549 21.0317 12.2045 20.1378 12.2045C19.3045 12.2045 18.5829 12.0701 17.973 11.8011C17.367 11.5322 16.8897 11.1572 16.5412 10.6761C16.1965 10.1951 16.0014 9.63636 15.956 9H17.4105C17.4484 9.43939 17.5961 9.80303 17.8537 10.0909C18.1151 10.375 18.4446 10.5871 18.8423 10.7273C19.2438 10.8636 19.6757 10.9318 20.1378 10.9318C20.6757 10.9318 21.1586 10.8447 21.5866 10.6705C22.0147 10.4924 22.3537 10.2462 22.6037 9.93182C22.8537 9.61364 22.9787 9.24242 22.9787 8.81818C22.9787 8.43182 22.8707 8.11742 22.6548 7.875C22.4389 7.63258 22.1548 7.43561 21.8026 7.28409C21.4503 7.13258 21.0696 7 20.6605 6.88636L19.2287 6.47727C18.3196 6.21591 17.5999 5.8428 17.0696 5.35795C16.5393 4.87311 16.2741 4.23864 16.2741 3.45455C16.2741 2.80303 16.4503 2.23485 16.8026 1.75C17.1586 1.26136 17.6359 0.882575 18.2344 0.613636C18.8366 0.340909 19.509 0.204545 20.2514 0.204545C21.0014 0.204545 21.6681 0.339015 22.2514 0.607954C22.8348 0.873105 23.2969 1.23674 23.6378 1.69886C23.9825 2.16098 24.1643 2.68561 24.1832 3.27273H22.8196ZM26.0227 1.61364V0.363636H34.75V1.61364H31.0909V12H29.6818V1.61364H26.0227ZM36.0426 12H34.5653L38.8381 0.363636H40.2926L44.5653 12H43.0881L39.6108 2.20455H39.5199L36.0426 12ZM36.5881 7.45455H42.5426V8.70455H36.5881V7.45455Z" fill="white"/>
</svg>
